#!OML:ASF H:\Terrain\Patient Classification 1\Walking\steve\steve.ASF
:FULLY-SPECIFIED
:DEGREES
63
root 6.65802 15.5269 -23.2046 6.97444 0.713425 -1.3135
lowerback 0.684263 1.10856 2.48734
upperback -3.24878 1.64971 3.09138
thorax -3.75266 0.799755 1.72857
lowerneck -9.82794 -0.928997 -3.15104
upperneck 13.4481 -0.75869 -0.00201762
head 5.69372 -0.52787 0.456884
rclavicle 4.43041e-014 1.90833e-014
rhumerus -45.7505 -29.7331 -63.7084
rradius 14.4802
rwrist 25.7358
rhand -20.3874 -35.2956
rfingers 7.12502
rthumb 5.9658 -65.1916
lclavicle 4.43041e-014 1.90833e-014
lhumerus -24.0788 -2.63508 92.8918
lradius 32.0931
lwrist 18.3163
lhand -26.9766 -13.7055
lfingers 7.12502
lthumb -0.397455 16.2739
rfemur -30.7219 1.96512 27.5149
rtibia 43.4083
rfoot -17.178 9.953
rtoes 6.10017
lfemur -15.3011 5.82203 -18.3437
ltibia 64.9704
lfoot -1.27642 -1.1779
ltoes -16.6607
64
root 6.65855 15.5685 -22.9733 6.88848 0.618972 -1.36706
lowerback 0.352054 1.26842 2.56053
upperback -3.1323 1.84069 2.98088
thorax -3.43999 0.893248 1.57416
lowerneck -9.87814 -0.983918 -2.93056
upperneck 13.8077 -0.867645 0.0252321
head 5.81559 -0.570901 0.420389
rclavicle 8.70925e-015 1.82882e-014
rhumerus -42.3588 -24.8758 -69.4311
rradius 15.8878
rwrist 18.6544
rhand -23.2892 -35.733
rfingers 7.12502
rthumb 3.16378 -65.6893
lclavicle 8.70925e-015 1.82882e-014
lhumerus -25.5474 -1.64003 92.6356
lradius 30.1158
lwrist 16.8919
lhand -25.9726 -13.937
lfingers 7.12502
lthumb 0.57218 16.0419
rfemur -29.1967 1.91818 27.6025
rtibia 42.624
rfoot -17.5462 10.1473
rtoes 5.05762
lfemur -17.0521 6.13349 -18.4596
ltibia 65.1767
lfoot -3.56069 -1.7807
ltoes -18.6251
65
root 6.65724 15.6061 -22.7426 6.80853 0.382778 -1.63892
lowerback 0.283511 1.46825 2.74952
upperback -3.20141 2.11207 3.0046
thorax -3.47033 1.02323 1.48539
lowerneck -9.88349 -0.989814 -2.75281
upperneck 14.3871 -0.87941 -0.104846
head 5.99768 -0.58204 0.348633
rclavicle 1.9102e-014 -1.19271e-014
rhumerus -38.6572 -27.6772 -69.8947
rradius 14.1244
rwrist 21.5861
rhand -25.5576 -37.1742
rfingers 7.12502
rthumb 0.973016 -67.1517
lclavicle 1.9102e-014 -1.19271e-014
lhumerus -26.9765 -0.449399 92.3579
lradius 27.5731
lwrist 15.1205
lhand -25.5877 -14.4097
lfingers 7.12502
lthumb 0.943986 15.5679
rfemur -27.7527 2.05967 27.9218
rtibia 41.9068
rfoot -17.9312 10.3982
rtoes 5.24456
lfemur -18.9162 6.66578 -18.3545
ltibia 65.2278
lfoot -5.4709 -1.80556
ltoes -21.4383
66
root 6.65442 15.6277 -22.5186 6.68379 -0.0536958 -2.0145
lowerback 0.38834 1.7276 3.03385
upperback -3.28473 2.47532 3.0493
thorax -3.60981 1.19517 1.35707
lowerneck -9.53386 -0.962773 -2.82896
upperneck 14.5965 -0.861206 0.0300171
head 6.00418 -0.568506 0.406527
rclavicle 2.23695e-014 -3.18055e-015
rhumerus -36.6087 -21.2817 -74.6191
rradius 16.6837
rwrist 14.9974
rhand -24.5384 -37.3574
rfingers 7.12502
rthumb 1.95735 -67.3282
lclavicle 2.23695e-014 -3.18055e-015
lhumerus -28.4861 0.535071 91.9625
lradius 25.1534
lwrist 13.3287
lhand -25.5319 -14.5225
lfingers 7.12502
lthumb 0.99784 15.4549
rfemur -26.3672 2.33237 28.3722
rtibia 41.2819
rfoot -18.3573 10.5516
rtoes 5.0687
lfemur -20.5238 7.15089 -18.1078
ltibia 65.2051
lfoot -6.91496 -1.86536
ltoes -23.0615
67
root 6.65593 15.6386 -22.2975 6.3176 -0.399612 -2.23836
lowerback 0.571899 1.93219 3.24275
upperback -3.06288 2.75323 3.06585
thorax -3.47574 1.32972 1.24535
lowerneck -9.7933 -1.0043 -2.86385
upperneck 14.842 -0.900597 0.0251371
head 6.12733 -0.591943 0.406217
rclavicle -1.69433e-015 1.90833e-014
rhumerus -34.4597 -17.5388 -77.4479
rradius 18.5243
rwrist 11.4417
rhand -23.1834 -37.405
rfingers 7.12502
rthumb 3.26601 -67.3597
lclavicle -1.69433e-015 1.90833e-014
lhumerus -29.7425 1.46315 91.457
lradius 23.1832
lwrist 11.5936
lhand -25.1723 -13.9959
lfingers 7.12502
lthumb 1.34518 15.9796
rfemur -24.7643 2.44732 28.6767
rtibia 40.7416
rfoot -19.2761 10.055
rtoes 1.57392
lfemur -21.8482 7.40515 -18.0187
ltibia 65.049
lfoot -8.03026 -1.63356
ltoes -22.1802
68
root 6.6612 15.6543 -22.0695 6.00543 -0.530325 -2.48594
lowerback 0.592591 2.0314 3.57868
upperback -2.82345 2.88281 3.07886
thorax -3.22412 1.38898 1.07091
lowerneck -10.2507 -1.01113 -2.83453
upperneck 15.2112 -0.889342 -0.0186907
head 6.32308 -0.591499 0.386071
rclavicle 2.70844e-014 1.66979e-014
rhumerus -32.2524 -14.6875 -79.4527
rradius 20.0077
rwrist 9.24234
rhand -23.0874 -39.384
rfingers 7.12502
rthumb 3.35873 -69.3373
lclavicle 2.70844e-014 1.66979e-014
lhumerus -30.9092 2.8851 90.6056
lradius 21.1149
lwrist 9.10105
lhand -24.5015 -13.8275
lfingers 7.12502
lthumb 1.99306 16.1429
rfemur -23.2286 2.33977 28.9784
rtibia 40.3069
rfoot -20.161 9.83094
rtoes -0.900156
lfemur -23.2538 7.52304 -17.9598
ltibia 64.721
lfoot -9.33662 -1.23453
ltoes -19.6076
69
root 6.66074 15.6702 -21.8412 6.15077 -0.523469 -2.57756
lowerback 0.233811 2.06893 3.72059
upperback -2.87075 2.91442 3.01726
thorax -3.06044 1.40208 0.940727
lowerneck -10.246 -0.930865 -2.79428
upperneck 15.4787 -0.799836 0.0716332
head 6.406 -0.540733 0.415669
rclavicle -1.66995e-014 -2.14687e-014
rhumerus -30.2155 -12.3155 -80.9576
rradius 21.0125
rwrist 7.57092
rhand -22.645 -41.0861
rfingers 7.12502
rthumb 3.78592 -71.0322
lclavicle -1.66995e-014 -2.14687e-014
lhumerus -32.2975 5.30051 89.0653
lradius 18.8092
lwrist 5.32071
lhand -23.9856 -14.79
lfingers 7.12502
lthumb 2.49127 15.1752
rfemur -22.2566 2.12534 29.1042
rtibia 39.9884
rfoot -20.7116 10.4765
rtoes 0.713786
lfemur -25.1229 7.53918 -18.1325
ltibia 64.1887
lfoot -10.6416 -0.956995
ltoes -19.649
70
root 6.66202 15.6619 -21.6202 6.36139 -0.547351 -2.51413
lowerback -0.100535 2.1486 3.71888
upperback -2.95939 3.00121 2.88968
thorax -2.9558 1.44462 0.819984
lowerneck -10.172 -0.900953 -2.67822
upperneck 15.745 -0.772252 0.0314426
head 6.47679 -0.525869 0.38624
rclavicle -3.99433e-015 -2.06736e-014
rhumerus -28.1888 -10.2997 -82.1537
rradius 21.7947
rwrist 5.73409
rhand -21.1596 -41.6864
rfingers 7.12502
rthumb 5.22024 -71.6021
lclavicle -3.99433e-015 -2.06736e-014
lhumerus -33.9604 7.41732 87.4222
lradius 16.8903
lwrist 1.52193
lhand -23.9404 -15.6332
lfingers 7.12502
lthumb 2.53488 14.3315
rfemur -21.4458 1.78393 29.0913
rtibia 39.6733
rfoot -21.3745 10.9393
rtoes 2.0374
lfemur -27.0438 7.51882 -18.518
ltibia 63.448
lfoot -11.5681 -0.445096
ltoes -21.2802
71
root 6.67106 15.6373 -21.3945 6.33534 -0.744073 -2.67549
lowerback -0.25903 2.3273 4.01311
upperback -2.90451 3.22905 2.82187
thorax -2.78788 1.55256 0.590588
lowerneck -10.1642 -0.979976 -2.71085
upperneck 15.8694 -0.871805 0.0210264
head 6.51676 -0.57759 0.379692
rclavicle -2.12498e-014 -7.95139e-015
rhumerus -26.2464 -8.24002 -83.1493
rradius 22.791
rwrist 3.31458
rhand -20.3008 -41.078
rfingers 7.12502
rthumb 6.04946 -70.9716
lclavicle -2.12498e-014 -7.95139e-015
lhumerus -35.8177 8.31221 86.2772
lradius 15.6591
lwrist -1.31129
lhand -23.7691 -14.7489
lfingers 7.12502
lthumb 2.70033 15.2137
rfemur -20.3235 1.26555 29.2961
rtibia 39.2456
rfoot -21.82 11.4701
rtoes 2.22891
lfemur -28.5603 7.58537 -18.6608
ltibia 62.5189
lfoot -12.3791 -0.366965
ltoes -21.1114
72
root 6.67905 15.6361 -21.158 6.23815 -1.00249 -2.98322
lowerback -0.34822 2.52452 4.40913
upperback -2.88583 3.48939 2.81129
thorax -2.69122 1.67413 0.361023
lowerneck -10.2858 -1.01332 -2.33884
upperneck 16.1459 -0.892406 -0.457711
head 6.62276 -0.606993 0.162463
rclavicle 4.16485e-014 3.26007e-014
rhumerus -24.3107 -7.04956 -83.7129
rradius 23.3096
rwrist 2.63296
rhand -19.7903 -42.0243
rfingers 7.12502
rthumb 6.54222 -71.9032
lclavicle 4.16485e-014 3.26007e-014
lhumerus -37.8679 9.30377 84.9123
lradius 14.6366
lwrist -4.11597
lhand -23.1789 -13.4796
lfingers 7.12502
lthumb 3.27031 16.4751
rfemur -18.9798 0.756612 29.5969
rtibia 38.6714
rfoot -21.8503 12.4791
rtoes 3.91889
lfemur -29.9898 7.62769 -18.5748
ltibia 61.4611
lfoot -12.7011 0.22988
ltoes -20.658
73
root 6.68646 15.6621 -20.9211 6.1883 -1.23447 -3.23486
lowerback -0.445917 2.70018 4.77251
upperback -2.89102 3.71892 2.74161
thorax -2.60993 1.78021 0.0906545
lowerneck -9.75927 -1.02153 -2.51265
upperneck 15.7939 -0.955088 -0.0909749
head 6.42154 -0.614219 0.306134
rclavicle -7.63457e-015 1.11319e-014
rhumerus -22.4234 -5.80742 -84.3211
rradius 23.9649
rwrist 1.83313
rhand -18.7096 -43.8486
rfingers 7.12502
rthumb 7.58545 -73.6926
lclavicle -7.63457e-015 1.11319e-014
lhumerus -39.9008 11.2006 82.6607
lradius 13.4364
lwrist -7.69395
lhand -22.4899 -13.3678
lfingers 7.12502
lthumb 3.93572 16.5756
rfemur -17.6078 0.371162 29.7956
rtibia 37.9411
rfoot -21.8914 13.1981
rtoes 4.37534
lfemur -31.3831 7.33906 -18.3781
ltibia 60.239
lfoot -12.874 0.211609
ltoes -12.8954
74
root 6.69764 15.6856 -20.6865 6.21131 -1.3957 -3.47651
lowerback -0.629254 2.84843 5.19061
upperback -2.82244 3.90032 2.65351
thorax -2.39801 1.86467 -0.219984
lowerneck -9.7036 -1.01545 -2.34537
upperneck 15.7088 -0.967205 -0.145063
head 6.38351 -0.613831 0.260741
rclavicle -8.79001e-015 -2.38542e-014
rhumerus -20.8112 -3.71336 -84.8904
rradius 25.6736
rwrist -0.714724
rhand -17.9283 -40.2393
rfingers 7.12502
rthumb 8.33952 -70.0547
lclavicle -8.79001e-015 -2.38542e-014
lhumerus -41.8753 13.4686 79.9108
lradius 12.3237
lwrist -11.6689
lhand -22.0205 -13.9652
lfingers 7.12502
lthumb 4.38894 15.9693
rfemur -16.2548 -0.109864 29.9659
rtibia 37.0651
rfoot -21.9319 13.5816
rtoes 2.56954
lfemur -32.6346 7.02738 -18.1829
ltibia 58.7887
lfoot -13.5551 -1.45774
ltoes -3.63584
